<svg width="32" height="32" viewBox="0 0 32 32" fill="none" xmlns="http://www.w3.org/2000/svg">
  <rect width="32" height="32" rx="8" fill="url(#gradient)"/>
  <path d="M16 8C11.58 8 8 11.58 8 16C8 20.42 11.58 24 16 24C20.42 24 24 20.42 24 16C24 11.58 20.42 8 16 8ZM16 10C19.31 10 22 12.69 22 16C22 19.31 19.31 22 16 22C12.69 22 10 19.31 10 16C10 12.69 12.69 10 16 10Z" fill="white"/>
  <circle cx="16" cy="16" r="2" fill="white"/>
  <defs>
    <linearGradient id="gradient" x1="0" y1="0" x2="32" y2="32" gradientUnits="userSpaceOnUse">
      <stop stop-color="#FF8E53"/>
      <stop offset="1" stop-color="#FE6B8B"/>
    </linearGradient>
  </defs>
</svg>
