<?xml version="1.0" encoding="UTF-8"?>
<svg version="1.1" xmlns="http://www.w3.org/2000/svg" width="179" height="205">
<path d="M0 0 C1.64387802 0.72970823 3.26832835 1.50415897 4.875 2.3125 C15.09323575 7.09579896 26.69499725 10.12015762 37.9921875 10.1328125 C39.66861328 10.13474609 39.66861328 10.13474609 41.37890625 10.13671875 C42.53261719 10.13285156 43.68632812 10.12898438 44.875 10.125 C46.02097656 10.12886719 47.16695313 10.13273437 48.34765625 10.13671875 C53.19807486 10.13113714 57.94814517 10.09656514 62.7578125 9.4296875 C64.36269531 9.21699219 64.36269531 9.21699219 66 9 C67.7371755 10.7371755 67.14554774 13.10995927 67.16113281 15.47509766 C67.17074036 16.64787262 67.1803479 17.82064758 67.19024658 19.02896118 C67.1966214 20.95208633 67.1966214 20.95208633 67.203125 22.9140625 C67.20882507 24.23103119 67.21452515 25.54799988 67.22039795 26.90487671 C67.23093161 29.70774725 67.23675541 32.51058899 67.24023438 35.31347656 C67.2456542 38.86235881 67.26952853 42.41084458 67.29820633 45.95960426 C67.31709112 48.71730541 67.32205228 51.4749172 67.32357025 54.23267746 C67.32798154 56.16375973 67.34652323 58.09479368 67.36553955 60.02578735 C67.29127957 90.1372127 53.41747088 116.61762029 33 138 C32.17822266 138.91652344 32.17822266 138.91652344 31.33984375 139.8515625 C26.01475666 145.5822459 19.60340312 149.88471097 13 154 C12.34725098 154.41088867 11.69450195 154.82177734 11.02197266 155.24511719 C-0.11742901 162.07585713 -0.11742901 162.07585713 -5.96875 161.921875 C-8.96837257 160.95140887 -11.32403595 159.6691657 -14 158 C-15.08667969 157.37996094 -16.17335937 156.75992188 -17.29296875 156.12109375 C-45.11712195 139.69478644 -64.26947891 112.87388519 -72.54199219 81.85864258 C-75.00568976 71.84904776 -75.15755431 61.66179216 -75.16796875 51.40234375 C-75.17129715 50.24626114 -75.17462555 49.09017853 -75.17805481 47.89906311 C-75.18308203 45.47804153 -75.18546445 43.05701312 -75.18530273 40.63598633 C-75.18751235 36.91671688 -75.2057748 33.19773364 -75.22460938 29.47851562 C-75.22753949 27.11979268 -75.22952684 24.76106833 -75.23046875 22.40234375 C-75.23765427 21.28786362 -75.24483978 20.17338348 -75.25224304 19.02513123 C-75.24916641 17.99968704 -75.24608978 16.97424286 -75.24291992 15.91772461 C-75.24505745 14.56184486 -75.24505745 14.56184486 -75.24723816 13.17857361 C-75 11 -75 11 -73 9 C-71.42978757 9.20091731 -69.8606844 9.41712958 -68.30126953 9.68945312 C-47.97418032 12.43251036 -24.88324363 10.21228131 -6.8515625 -0.24609375 C-4.22235352 -1.31663665 -2.68827397 -0.8097706 0 0 Z " fill="#EC7D31" transform="translate(93,23)"/>
<path d="M0 0 C1.64387802 0.72970823 3.26832835 1.50415897 4.875 2.3125 C15.09323575 7.09579896 26.69499725 10.12015762 37.9921875 10.1328125 C39.66861328 10.13474609 39.66861328 10.13474609 41.37890625 10.13671875 C42.53261719 10.13285156 43.68632812 10.12898438 44.875 10.125 C46.02097656 10.12886719 47.16695313 10.13273437 48.34765625 10.13671875 C53.19807486 10.13113714 57.94814517 10.09656514 62.7578125 9.4296875 C64.36269531 9.21699219 64.36269531 9.21699219 66 9 C67.74600879 10.74600879 67.13663299 13.16510152 67.14526367 15.53857422 C67.15164352 16.72425995 67.15802338 17.90994568 67.16459656 19.13156128 C67.16626579 21.07350876 67.16626579 21.07350876 67.16796875 23.0546875 C67.1711828 24.39454179 67.17454698 25.73439572 67.17805481 27.07424927 C67.18405838 29.8939088 67.18589386 32.71353765 67.18530273 35.53320312 C67.18520197 39.11826183 67.19875861 42.70311861 67.21607494 46.28812981 C67.22729626 49.06282419 67.22921873 51.8374717 67.22869301 54.61218643 C67.23042501 56.56779707 67.2412167 58.52339307 67.25224304 60.47897339 C67.23355406 67.87289688 66.63068409 74.78224837 65 82 C64.67 82 64.34 82 64 82 C64 78.04 64 74.08 64 70 C64.66 70 65.32 70 66 70 C65.83628906 69.32582031 65.67257813 68.65164062 65.50390625 67.95703125 C64.9124642 64.48632094 64.90460954 61.20677876 64.9375 57.6875 C64.94652344 56.43324219 64.95554688 55.17898437 64.96484375 53.88671875 C64.98224609 52.45779297 64.98224609 52.45779297 65 51 C64.34 51 63.68 51 63 51 C62.67 49.68 62.34 48.36 62 47 C61.2575 47.7115625 61.2575 47.7115625 60.5 48.4375 C57.94120651 50.03674593 56.73405474 50.2792613 53.8125 50.5625 C52.554375 50.706875 51.29625 50.85125 50 51 C49.505 51.99 49.505 51.99 49 53 C47.515 53.495 47.515 53.495 46 54 C44.4690926 55.71515743 44.4690926 55.71515743 43.0390625 57.859375 C42.48476562 58.64570312 41.93046875 59.43203125 41.359375 60.2421875 C40.78703125 61.06976563 40.2146875 61.89734375 39.625 62.75 C36.0467451 67.896805 32.62225226 72.74129567 28 77 C27.113125 76.21625 26.22625 75.4325 25.3125 74.625 C22.69279481 72.42843009 20.28284399 71.06209659 17 70 C17 69.34 17 68.68 17 68 C17.928125 67.525625 18.85625 67.05125 19.8125 66.5625 C23.92619924 63.98900095 24.50903432 60.24592528 25.65234375 55.75390625 C26.02308457 52.81713905 25.86798859 50.82214871 25 48 C21.29662159 43.71187763 18.76646728 42.70366518 13.125 42.1875 C11.41760021 42.10326828 9.70914889 42.03345309 8 42 C8 39.03 8 36.06 8 33 C4.37 33 0.74 33 -3 33 C-3 35.97 -3 38.94 -3 42 C-4.98 42 -6.96 42 -9 42 C-9.495 38.04 -9.495 38.04 -10 34 C-13.3 33.67 -16.6 33.34 -20 33 C-19.979375 34.299375 -19.95875 35.59875 -19.9375 36.9375 C-19.91600546 38.29165633 -19.92851801 39.64756083 -20 41 C-21 42 -21 42 -23.28515625 42.09765625 C-25.85677083 42.06510417 -28.42838542 42.03255208 -31 42 C-31 45.3 -31 48.6 -31 52 C-27.7 52 -24.4 52 -21 52 C-21 64.87 -21 77.74 -21 91 C-24.3 91 -27.6 91 -31 91 C-31 94.3 -31 97.6 -31 101 C-30.01 101 -29.02 101 -28 101 C-28.42732422 101.84498047 -28.42732422 101.84498047 -28.86328125 102.70703125 C-29.6153093 104.22400879 -30.32237411 105.7641936 -30.98046875 107.32421875 C-32.41506775 110.13306146 -33.58496512 111.94073282 -36 114 C-40.07671877 114.81795425 -43.57651836 114.93903072 -47.734375 114.90234375 C-51.08616424 114.62906108 -51.08616424 114.62906108 -53 117 C-53.69748583 118.31747324 -54.36959957 119.64914193 -55 121 C-68.52250471 98.52103113 -75.14116069 77.81144007 -75.16796875 51.40234375 C-75.17129715 50.24626114 -75.17462555 49.09017853 -75.17805481 47.89906311 C-75.18308203 45.47804153 -75.18546445 43.05701312 -75.18530273 40.63598633 C-75.18751235 36.91671688 -75.2057748 33.19773364 -75.22460938 29.47851562 C-75.22753949 27.11979268 -75.22952684 24.76106833 -75.23046875 22.40234375 C-75.23765427 21.28786362 -75.24483978 20.17338348 -75.25224304 19.02513123 C-75.24916641 17.99968704 -75.24608978 16.97424286 -75.24291992 15.91772461 C-75.24505745 14.56184486 -75.24505745 14.56184486 -75.24723816 13.17857361 C-75 11 -75 11 -73 9 C-71.42978757 9.20091731 -69.8606844 9.41712958 -68.30126953 9.68945312 C-47.97418032 12.43251036 -24.88324363 10.21228131 -6.8515625 -0.24609375 C-4.22235352 -1.31663665 -2.68827397 -0.8097706 0 0 Z " fill="#EA7D32" transform="translate(93,23)"/>
<path d="M0 0 C2.37652015 1.22469258 4.68420954 2.48392499 7 3.8125 C26.69608535 14.72398058 50.98775152 16.34556627 72.5703125 10.15625 C76.66140469 8.77702074 80.2566395 7.13906314 84 5 C84.66 5 85.32 5 86 5 C86.06985895 16.60582667 86.12299219 28.21160238 86.15543652 39.81759739 C86.17101703 45.20814565 86.19211438 50.59854886 86.22631836 55.98901367 C86.25918565 61.2021163 86.27691009 66.41508039 86.28463173 71.62827873 C86.29012654 73.60594802 86.30085477 75.58361071 86.31719017 77.56122017 C86.40878709 89.12189608 85.87907891 99.76399441 83 111 C82.77953003 111.86172318 82.55906006 112.72344635 82.33190918 113.61128235 C76.32069454 136.02024702 63.79082337 155.29610181 48 172 C47.24203125 172.82242188 46.4840625 173.64484375 45.703125 174.4921875 C33.66660827 187.11872956 15.4050614 200.46933778 -2 204 C-5.30230153 204 -7.92739102 203.167302 -11 202 C-12.03769531 201.62617188 -13.07539062 201.25234375 -14.14453125 200.8671875 C-46.76387918 188.05375116 -71.06802008 159.40820996 -85 128 C-89.90385165 115.4913562 -93.34079188 102.62690348 -93.22705078 89.14404297 C-93.22734283 88.2159935 -93.22763489 87.28794403 -93.22793579 86.33177185 C-93.22655615 83.30181115 -93.21106001 80.27210459 -93.1953125 77.2421875 C-93.19157751 75.12655776 -93.18873283 73.01092628 -93.18673706 70.89529419 C-93.17913892 65.35513445 -93.15952356 59.81508131 -93.1373291 54.27496338 C-93.11678803 48.61040692 -93.10771774 42.94583306 -93.09765625 37.28125 C-93.07627379 26.18745343 -93.04218441 15.09373562 -93 4 C-91.92097412 4.63462158 -90.84194824 5.26924316 -89.73022461 5.9230957 C-86.14077177 8.03420748 -82.61006697 9.15560207 -78.5625 10.1875 C-77.32628906 10.51105469 -76.09007812 10.83460937 -74.81640625 11.16796875 C-51.06861689 16.34532713 -28.18268187 12.72121997 -7.47265625 0.0390625 C-4.35385403 -1.27152422 -3.18602393 -1.09682791 0 0 Z M-6.02368164 11.55151367 C-6.72871826 11.91994385 -7.43375488 12.28837402 -8.16015625 12.66796875 C-8.94874023 13.06564453 -9.73732422 13.46332031 -10.54980469 13.87304688 C-11.79358887 14.52370117 -11.79358887 14.52370117 -13.0625 15.1875 C-25.86493615 21.57659915 -37.43234987 24.17250257 -51.75 24.25 C-52.65621094 24.270625 -53.56242187 24.29125 -54.49609375 24.3125 C-64.15441286 24.3652057 -73.51509042 22.64836043 -83 21 C-83.07024454 29.53792387 -83.12318186 38.07572227 -83.15543652 46.61386585 C-83.17093557 50.58065481 -83.19187591 54.54724272 -83.22631836 58.51391602 C-83.52476221 93.83734558 -79.70302354 125.47132553 -57 154 C-56.53045898 154.59441895 -56.06091797 155.18883789 -55.57714844 155.80126953 C-43.15466855 171.35222011 -24.96872194 188.60556206 -4.74609375 192.42578125 C11.356393 192.02856621 28.17081518 176.19437053 39 166 C39.60328125 165.46117187 40.2065625 164.92234375 40.828125 164.3671875 C58.43978742 147.9899874 68.60774055 123.95166843 74 101 C74.26755348 99.89275322 74.26755348 99.89275322 74.54051208 98.76313782 C75.10883179 95.34553831 75.13169148 92.00030871 75.11352539 88.54760742 C75.11374443 87.44923553 75.11374443 87.44923553 75.1139679 86.32867432 C75.11327413 83.92090845 75.10550692 81.51322102 75.09765625 79.10546875 C75.09579017 77.43109682 75.09436716 75.75672435 75.09336853 74.08235168 C75.08955835 69.68472779 75.0797409 65.28713716 75.06866455 60.88952637 C75.05841816 56.39836069 75.053864 51.90718963 75.04882812 47.41601562 C75.03811726 38.61066186 75.02105888 29.80533507 75 21 C74.45272751 21.0885878 73.90545502 21.1771756 73.34159851 21.26844788 C52.86355205 24.55106289 52.86355205 24.55106289 43.8125 24.4375 C42.90161621 24.42920166 41.99073242 24.42090332 41.05224609 24.41235352 C26.05506072 24.04365631 10.8816139 19.72967063 -1.94580078 11.79663086 C-3.97164178 10.77704795 -3.97164178 10.77704795 -6.02368164 11.55151367 Z " fill="#E87D34" transform="translate(93,1)"/>
<path d="M0 0 C1.64574566 -0.02688151 3.29161413 -0.04634123 4.9375 -0.0625 C5.85402344 -0.07410156 6.77054688 -0.08570313 7.71484375 -0.09765625 C10 0 10 0 11 1 C11.14115161 3.67058851 11.04247107 6.32432238 11 9 C12.98 9 14.96 9 17 9 C17 6.03 17 3.06 17 0 C20.63 0 24.26 0 28 0 C28 2.97 28 5.94 28 9 C28.71285156 8.93039063 29.42570312 8.86078125 30.16015625 8.7890625 C35.28793445 8.49920155 39.01825314 8.33522856 43.125 11.6875 C45.8721054 14.23087271 46.64771649 16.27900544 47 20 C46.26367025 25.29706603 45.16494323 29.77823027 41.4375 33.6875 C39 35 39 35 37 35 C37 35.66 37 36.32 37 37 C37.721875 37.0825 38.44375 37.165 39.1875 37.25 C42.61227126 38.16327234 44.47007429 39.54235788 47 42 C47 42.99 47 43.98 47 45 C47.66 45 48.32 45 49 45 C49.62296173 55.84991681 49.62296173 55.84991681 47.375 60 C46.199375 60.99 46.199375 60.99 45 62 C43.700625 63.11375 43.700625 63.11375 42.375 64.25 C37.81832067 66.61272262 34.11073372 66.72374412 29 67 C29 70.3 29 73.6 29 77 C24.71 77 20.42 77 16 77 C16 74.03 16 71.06 16 68 C14.68 68 13.36 68 12 68 C12 70.97 12 73.94 12 77 C7.38 77 2.76 77 -2 77 C-2 74.36 -2 71.72 -2 69 C-4.97 68.34 -7.94 67.68 -11 67 C-11 64.03 -11 61.06 -11 58 C-7.7 58 -4.4 58 -1 58 C-1 45.13 -1 32.26 -1 19 C-4.3 19 -7.6 19 -11 19 C-11 15.7 -11 12.4 -11 9 C-7.7 8.67 -4.4 8.34 -1 8 C-0.67 5.36 -0.34 2.72 0 0 Z " fill="#FCA906" transform="translate(73,56)"/>
<path d="M0 0 C0.67364661 2.08108685 1.33866798 4.1649671 2 6.25 C2.37125 7.41015625 2.7425 8.5703125 3.125 9.765625 C4 13 4 13 4 17 C2.83726562 16.96777344 1.67453125 16.93554688 0.4765625 16.90234375 C-3.6811283 17.42869166 -5.27170934 18.95219779 -7.8515625 22.19140625 C-9.13345821 23.96460703 -10.39069139 25.7558512 -11.625 27.5625 C-12.2540625 28.44486328 -12.883125 29.32722656 -13.53125 30.23632812 C-14.77230838 31.97818703 -16.00464483 33.72629808 -17.22753906 35.48095703 C-19.73781098 39.04858591 -22.35736614 42.52978192 -25 46 C-25.92232422 45.36771484 -25.92232422 45.36771484 -26.86328125 44.72265625 C-28.07564453 43.90087891 -28.07564453 43.90087891 -29.3125 43.0625 C-30.11300781 42.51722656 -30.91351563 41.97195312 -31.73828125 41.41015625 C-34.0258143 39.86162674 -34.0258143 39.86162674 -37 39 C-37 38.34 -37 37.68 -37 37 C-36.071875 36.401875 -35.14375 35.80375 -34.1875 35.1875 C-30.02875871 32.33346186 -28.57768255 29.81007199 -27.0625 25.0625 C-25.86098258 21.59930272 -24.12289638 18.97205494 -22 16 C-23.65 16 -25.3 16 -27 16 C-22.84007075 11.58984498 -18.11518037 8.82643269 -12.9375 5.75 C-11.57141602 4.91855469 -11.57141602 4.91855469 -10.17773438 4.0703125 C-9.30310547 3.54695313 -8.42847656 3.02359375 -7.52734375 2.484375 C-6.73062256 2.00709961 -5.93390137 1.52982422 -5.11303711 1.03808594 C-3 0 -3 0 0 0 Z " fill="#2E3E67" transform="translate(147,54)"/>
<path d="M0 0 C0.33 0 0.66 0 1 0 C1 7.59 1 15.18 1 23 C-2.3 23 -5.6 23 -9 23 C-9 26.3 -9 29.6 -9 33 C-8.01 33 -7.02 33 -6 33 C-6.60036728 34.36447109 -7.29325371 35.68747118 -8 37 C-8.29519531 37.57878906 -8.59039062 38.15757812 -8.89453125 38.75390625 C-11.80206858 43.67514434 -11.80206858 43.67514434 -15.0949707 44.56811523 C-17.53461884 44.68898604 -19.8764207 44.61246702 -22.3125 44.4375 C-23.14845703 44.40591797 -23.98441406 44.37433594 -24.84570312 44.34179688 C-26.89865506 44.2596788 -28.94978898 44.13412595 -31 44 C-29.6999287 41.27638064 -28.26842812 38.81399202 -26.53125 36.34765625 C-26.04744873 35.66002197 -25.56364746 34.9723877 -25.06518555 34.26391602 C-24.54867432 33.53744873 -24.03216309 32.81098145 -23.5 32.0625 C-22.96608643 31.30831787 -22.43217285 30.55413574 -21.88208008 29.77709961 C-17.81169896 24.06115524 -13.58370897 18.49087084 -9.265625 12.9609375 C-6.46848247 9.30536157 -3.85385859 5.54371071 -1.27734375 1.73046875 C-0.85582031 1.15941406 -0.43429688 0.58835937 0 0 Z " fill="#414355" transform="translate(71,91)"/>
<path d="M0 0 C3.56673248 -0.02103381 7.1218426 0.00654179 10.6875 0.0625 C11.69490234 0.05154297 12.70230469 0.04058594 13.74023438 0.02929688 C21.0189917 0.19745298 21.0189917 0.19745298 23.81176758 2.48217773 C26.91260502 6.60763972 27.53462359 9.76068884 27 15 C21.41523931 18.58214448 16.51742747 18.3564056 10.125 18.1875 C9.15046875 18.17396484 8.1759375 18.16042969 7.171875 18.14648438 C4.78100991 18.11132459 2.39043157 18.05752375 0 18 C0 12.06 0 6.12 0 0 Z " fill="#EB921C" transform="translate(83,96)"/>
<path d="M0 0 C3.27132607 -0.08081043 6.54066421 -0.14040709 9.8125 -0.1875 C10.74126953 -0.21263672 11.67003906 -0.23777344 12.62695312 -0.26367188 C13.9659668 -0.27817383 13.9659668 -0.27817383 15.33203125 -0.29296875 C16.56530151 -0.31653442 16.56530151 -0.31653442 17.82348633 -0.34057617 C20 0 20 0 21.8112793 1.2878418 C23 3 23 3 22.6875 6.6875 C22.460625 7.780625 22.23375 8.87375 22 10 C21.01 10.33 20.02 10.66 19 11 C19 11.66 19 12.32 19 13 C15.69005287 14.65497356 12.00877 14.10084335 8.375 14.0625 C7.57320313 14.05798828 6.77140625 14.05347656 5.9453125 14.04882812 C3.96350994 14.03703168 1.98174567 14.01909605 0 14 C0 9.38 0 4.76 0 0 Z " fill="#D7792B" transform="translate(84,75)"/>
<path d="M0 0 C12.73645814 -0.5564472 12.73645814 -0.5564472 18 3 C19 4 19 4 19.0625 7.5625 C19.041875 8.696875 19.02125 9.83125 19 11 C14.87170771 11.54908321 11.1080562 11.77249874 7 11 C3.88763003 8.44506943 1.8324974 5.57466043 0 2 C0 1.34 0 0.68 0 0 Z " fill="#2C2423" transform="translate(90,98)"/>
<path d="M0 0 C2.14576637 -0.02685938 4.29162645 -0.04633088 6.4375 -0.0625 C7.63246094 -0.07410156 8.82742187 -0.08570313 10.05859375 -0.09765625 C13 0 13 0 14 1 C14.07179964 2.51928038 14.08392007 4.04167482 14.0625 5.5625 C14.05347656 6.38878906 14.04445313 7.21507812 14.03515625 8.06640625 C14.02355469 8.70449219 14.01195313 9.34257813 14 10 C15.32 10 16.64 10 18 10 C18 7.03 18 4.06 18 1 C22.29 1 26.58 1 31 1 C31 3.97 31 6.94 31 10 C33.31 10 35.62 10 38 10 C38 10.33 38 10.66 38 11 C35.36 11 32.72 11 30 11 C30 8.03 30 5.06 30 2 C26.37 2 22.74 2 19 2 C19 4.97 19 7.94 19 11 C17.02 11 15.04 11 13 11 C12.67 8.36 12.34 5.72 12 3 C8.7 2.67 5.4 2.34 2 2 C2.020625 3.299375 2.04125 4.59875 2.0625 5.9375 C2.08399454 7.29165633 2.07148199 8.64756083 2 10 C1 11 1 11 -1.28515625 11.09765625 C-3.85677083 11.06510417 -6.42838542 11.03255208 -9 11 C-9 14.3 -9 17.6 -9 21 C-5.7 21 -2.4 21 1 21 C1 26.28 1 31.56 1 37 C0.67 37 0.34 37 0 37 C0 32.05 0 27.1 0 22 C-1.464375 22.185625 -2.92875 22.37125 -4.4375 22.5625 C-5.95318071 22.75462854 -7.47480724 22.91062197 -9 23 C-10 22 -10 22 -10.1328125 19.3125 C-10.13023438 18.219375 -10.12765625 17.12625 -10.125 16 C-10.12757812 14.906875 -10.13015625 13.81375 -10.1328125 12.6875 C-10 10 -10 10 -9 9 C-5.99668982 8.85806663 -3.00782866 8.95763622 0 9 C0 6.03 0 3.06 0 0 Z " fill="#F28F1B" transform="translate(71,54)"/>
<path d="M0 0 C5 0 5 0 6.80078125 1.4609375 C7.29964844 2.09257813 7.79851562 2.72421875 8.3125 3.375 C8.82425781 4.00148438 9.33601563 4.62796875 9.86328125 5.2734375 C11 7 11 7 11 9 C14.63 9 18.26 9 22 9 C22 9.66 22 10.32 22 11 C17.37540756 12.17700048 12.92133538 12.11408412 8.1875 12.0625 C7.39923828 12.05798828 6.61097656 12.05347656 5.79882812 12.04882812 C3.86585239 12.03711312 1.93291607 12.01917998 0 12 C0 8.04 0 4.08 0 0 Z " fill="#E97E34" transform="translate(86,100)"/>
<path d="M0 0 C1.32 0 2.64 0 4 0 C4.67258667 2.33163378 5.33847444 4.6652039 6 7 C6.3403125 8.1446875 6.3403125 8.1446875 6.6875 9.3125 C7 11 7 11 6 13 C1.05 13 -3.9 13 -9 13 C-9 12.34 -9 11.68 -9 11 C-8.34 11 -7.68 11 -7 11 C-6.34 9.35 -5.68 7.7 -5 6 C-4.34 6 -3.68 6 -3 6 C-2.67 5.01 -2.34 4.02 -2 3 C-1.67 3.33 -1.34 3.66 -1 4 C-0.67 2.68 -0.34 1.36 0 0 Z " fill="#2D3E68" transform="translate(52,120)"/>
<path d="M0 0 C0.99 0.33 1.98 0.66 3 1 C1.67879172 3.93230193 0.25361803 5.98664899 -2.0390625 8.234375 C-2.90917969 9.09482422 -2.90917969 9.09482422 -3.796875 9.97265625 C-4.40015625 10.55917969 -5.0034375 11.14570313 -5.625 11.75 C-6.23601562 12.35199219 -6.84703125 12.95398438 -7.4765625 13.57421875 C-8.97988624 15.05405305 -10.48934856 16.52764676 -12 18 C-13.9451 15.08235 -14.45276317 13.37462715 -15 10 C-19.04420651 11.77945087 -22.46078487 14.39529673 -26 17 C-26.66 16.67 -27.32 16.34 -28 16 C-26.25084555 14.56147125 -24.50064205 13.12421802 -22.75 11.6875 C-21.77546875 10.88699219 -20.8009375 10.08648437 -19.796875 9.26171875 C-17.5633738 7.45557742 -15.31312737 5.70180085 -13 4 C-12.87625 4.804375 -12.7525 5.60875 -12.625 6.4375 C-12.41875 7.283125 -12.2125 8.12875 -12 9 C-11.34 9.33 -10.68 9.66 -10 10 C-10 9.34 -10 8.68 -10 8 C-8.02 8 -6.04 8 -4 8 C-4.33 7.01 -4.66 6.02 -5 5 C-4.34 5 -3.68 5 -3 5 C-3 4.01 -3 3.02 -3 2 C-2.01 2 -1.02 2 0 2 C0 1.34 0 0.68 0 0 Z " fill="#E07D3C" transform="translate(145,163)"/>
<path d="M0 0 C0.33 0 0.66 0 1 0 C1.5304408 2.26860837 2.04905434 4.53998489 2.5625 6.8125 C2.85253906 8.07707031 3.14257812 9.34164062 3.44140625 10.64453125 C4 14 4 14 3 17 C2.34 15.68 1.68 14.36 1 13 C-2.24716062 16.48783514 -2.24716062 16.48783514 -3 21 C-2.34 20.67 -1.68 20.34 -1 20 C-0.8125 22.375 -0.8125 22.375 -1 25 C-1.99 25.66 -2.98 26.32 -4 27 C-5.00906461 23.75274421 -6.00565122 20.50178926 -7 17.25 C-7.42925781 15.86941406 -7.42925781 15.86941406 -7.8671875 14.4609375 C-8.13789063 13.57148437 -8.40859375 12.68203125 -8.6875 11.765625 C-8.93886719 10.94868164 -9.19023437 10.13173828 -9.44921875 9.29003906 C-10 7 -10 7 -10 3 C-9.34 3 -8.68 3 -8 3 C-7.67 5.31 -7.34 7.62 -7 10 C-5.35 9.67 -3.7 9.34 -2 9 C-1.34 6.03 -0.68 3.06 0 0 Z " fill="#DF7E3B" transform="translate(11,99)"/>
<path d="M0 0 C1.98 0 3.96 0 6 0 C6.66 2.97 7.32 5.94 8 9 C9.32 8.67 10.64 8.34 12 8 C14.25 8.4375 14.25 8.4375 16 9 C16 6.69 16 4.38 16 2 C16.66 2 17.32 2 18 2 C18 4.97 18 7.94 18 11 C13.71 11 9.42 11 5 11 C5 8.03 5 5.06 5 2 C3.68 2 2.36 2 1 2 C1 4.97 1 7.94 1 11 C-3.62 11 -8.24 11 -13 11 C-13 8.36 -13 5.72 -13 3 C-14.65 2.67 -16.3 2.34 -18 2 C-18 1.67 -18 1.34 -18 1 C-16.02 1 -14.04 1 -12 1 C-11.67 3.97 -11.34 6.94 -11 10 C-7.37 10 -3.74 10 0 10 C0 6.7 0 3.4 0 0 Z " fill="#F69519" transform="translate(84,122)"/>
<path d="M0 0 C1.32 0.66 2.64 1.32 4 2 C4 4.31 4 6.62 4 9 C2.35 9.33 0.7 9.66 -1 10 C-1 9.34 -1 8.68 -1 8 C-2.65 8.33 -4.3 8.66 -6 9 C-6.33 10.32 -6.66 11.64 -7 13 C-8.32 12.67 -9.64 12.34 -11 12 C-11 10.68 -11 9.36 -11 8 C-8.3125 6 -8.3125 6 -5 4 C-3.31916921 2.68456721 -1.6475884 1.35683751 0 0 Z " fill="#EE7C2F" transform="translate(128,172)"/>
<path d="M0 0 C0.99 0.33 1.98 0.66 3 1 C3 1.66 3 2.32 3 3 C3.99 2.67 4.98 2.34 6 2 C6 3.32 6 4.64 6 6 C6.61875 6.0825 7.2375 6.165 7.875 6.25 C10 7 10 7 11.25 9.0625 C11.4975 9.701875 11.745 10.34125 12 11 C11.01 11.495 11.01 11.495 10 12 C10 11.34 10 10.68 10 10 C9.34 10 8.68 10 8 10 C7.67 11.32 7.34 12.64 7 14 C6.01 13.67 5.02 13.34 4 13 C4.33 11.68 4.66 10.36 5 9 C4.236875 9.0825 3.47375 9.165 2.6875 9.25 C0 9 0 9 -1.875 7.25 C-3 5 -3 5 -2.8125 2.8125 C-2 1 -2 1 0 0 Z " fill="#ED7C30" transform="translate(31,155)"/>
<path d="M0 0 C3.94111295 3.7299819 6.88885285 7.92008765 10 12.34375 C11.92220118 15.03162743 11.92220118 15.03162743 14.25 17.21875 C16 19 16 19 16 21 C15.01 20.67 14.02 20.34 13 20 C12.67 19.34 12.34 18.68 12 18 C11.01 17.67 10.02 17.34 9 17 C8.67 16.01 8.34 15.02 8 14 C7.34 14 6.68 14 6 14 C6 13.34 6 12.68 6 12 C4.35 12.33 2.7 12.66 1 13 C1 14.65 1 16.3 1 18 C-1.5 15.6875 -1.5 15.6875 -4 13 C-4 12.01 -4 11.02 -4 10 C-3.34 10 -2.68 10 -2 10 C-1.01 9.34 -0.02 8.68 1 8 C1 8.66 1 9.32 1 10 C1.99 10 2.98 10 4 10 C2.33075929 6.95865509 2.33075929 6.95865509 0 6 C0 4.02 0 2.04 0 0 Z " fill="#E27D3A" transform="translate(28,144)"/>
<path d="M0 0 C1.32 0.33 2.64 0.66 4 1 C3.34 1 2.68 1 2 1 C2 1.66 2 2.32 2 3 C3.32 3 4.64 3 6 3 C6 2.34 6 1.68 6 1 C6.99 0.67 7.98 0.34 9 0 C9 0.66 9 1.32 9 2 C10.98 1.67 12.96 1.34 15 1 C14.8125 2.875 14.8125 2.875 14 5 C12.34795544 5.70211894 10.68076231 6.36971413 9 7 C8.67 7.99 8.34 8.98 8 10 C7.01 10 6.02 10 5 10 C5 8.68 5 7.36 5 6 C3.3603125 6.309375 3.3603125 6.309375 1.6875 6.625 C-2 7 -2 7 -5 5 C-4.34 4.34 -3.68 3.68 -3 3 C-2.01 3 -1.02 3 0 3 C0 2.01 0 1.02 0 0 Z " fill="#EE7D2F" transform="translate(81,193)"/>
<path d="M0 0 C0.66 0.99 1.32 1.98 2 3 C1.67 3.33 1.34 3.66 1 4 C0.63239269 6.32817964 0.29758419 8.6618385 0 11 C-0.66 11 -1.32 11 -2 11 C-2 11.99 -2 12.98 -2 14 C-2.66 14 -3.32 14 -4 14 C-4 13.34 -4 12.68 -4 12 C-5.32 12 -6.64 12 -8 12 C-8.33 13.98 -8.66 15.96 -9 18 C-10.32 18 -11.64 18 -13 18 C-13.99 20.475 -13.99 20.475 -15 23 C-15.66 23 -16.32 23 -17 23 C-15.24401387 19.16530597 -12.92756086 15.72690691 -10.5625 12.25 C-10.16740234 11.64800781 -9.77230469 11.04601562 -9.36523438 10.42578125 C-8.32163579 8.89424389 -7.16710744 7.43964055 -6 6 C-5.01 6 -4.02 6 -3 6 C-2.690625 5.38125 -2.38125 4.7625 -2.0625 4.125 C-1.375 2.75 -0.6875 1.375 0 0 Z " fill="#2F3E61" transform="translate(60,108)"/>
<path d="M0 0 C2.55084822 3.82627233 4.26791748 7.86601847 6.125 12.0625 C6.68380859 13.30483398 6.68380859 13.30483398 7.25390625 14.57226562 C7.60582031 15.36439453 7.95773438 16.15652344 8.3203125 16.97265625 C8.64273926 17.69718994 8.96516602 18.42172363 9.29736328 19.16821289 C10 21 10 21 10 23 C9.34 23 8.68 23 8 23 C5 17.25 5 17.25 5 15 C2.03 14.67 -0.94 14.34 -4 14 C-4.33 14.99 -4.66 15.98 -5 17 C-5.33 15.35 -5.66 13.7 -6 12 C-3.525 12.495 -3.525 12.495 -1 13 C-1.309375 12.01 -1.309375 12.01 -1.625 11 C-2.13703763 6.90369892 -1.14033701 3.95764021 0 0 Z " fill="#E37B38" transform="translate(15,116)"/>
<path d="M0 0 C3.79160297 -0.05786668 7.58309311 -0.09355054 11.375 -0.125 C12.45523438 -0.14175781 13.53546875 -0.15851563 14.6484375 -0.17578125 C15.6796875 -0.18222656 16.7109375 -0.18867187 17.7734375 -0.1953125 C19.20308838 -0.21102295 19.20308838 -0.21102295 20.66162109 -0.22705078 C23 0 23 0 25 2 C25.23046875 4.09375 25.23046875 4.09375 25.1875 6.5 C25.18105469 7.2940625 25.17460938 8.088125 25.16796875 8.90625 C25 11 25 11 24 13 C23.34 12.67 22.68 12.34 22 12 C22.20625 10.88625 22.4125 9.7725 22.625 8.625 C22.74875 7.42875 22.8725 6.2325 23 5 C20.56085508 2.56085508 19.78553569 2.71337477 16.4296875 2.5859375 C15.53378906 2.54726562 14.63789062 2.50859375 13.71484375 2.46875 C12.77769531 2.4378125 11.84054688 2.406875 10.875 2.375 C9.45767578 2.31699219 9.45767578 2.31699219 8.01171875 2.2578125 C5.6748065 2.1633918 3.3374297 2.08060102 1 2 C1 6.29 1 10.58 1 15 C0.67 15 0.34 15 0 15 C-0.19448477 12.87562788 -0.38038289 10.75046809 -0.5625 8.625 C-0.66691406 7.44164063 -0.77132812 6.25828125 -0.87890625 5.0390625 C-1 2 -1 2 0 0 Z " fill="#FBA115" transform="translate(83,73)"/>
<path d="M0 0 C3.96 0 7.92 0 12 0 C12.99 1.98 13.98 3.96 15 6 C10.05 6 5.1 6 0 6 C0 4.02 0 2.04 0 0 Z " fill="#3D3E53" transform="translate(85,82)"/>
<path d="M0 0 C1.32 0.33 2.64 0.66 4 1 C4 1.66 4 2.32 4 3 C3.34 3 2.68 3 2 3 C2 3.66 2 4.32 2 5 C1.01 5 0.02 5 -1 5 C-1.33 6.98 -1.66 8.96 -2 11 C-3.98 11 -5.96 11 -8 11 C-8 11.66 -8 12.32 -8 13 C-9.32 12.34 -10.64 11.68 -12 11 C-11.67 9.68 -11.34 8.36 -11 7 C-9.865625 6.71125 -8.73125 6.4225 -7.5625 6.125 C-6.386875 5.75375 -5.21125 5.3825 -4 5 C-3.67 4.34 -3.34 3.68 -3 3 C-2.34 3 -1.68 3 -1 3 C-0.67 2.01 -0.34 1.02 0 0 Z " fill="#EC7C2D" transform="translate(143,160)"/>
<path d="M0 0 C2.30383155 1.35052194 3.43435384 2.78855884 4.8125 5.0625 C4.8125 5.7225 4.8125 6.3825 4.8125 7.0625 C4.1525 7.0625 3.4925 7.0625 2.8125 7.0625 C2.8125 7.7225 2.8125 8.3825 2.8125 9.0625 C0.125 9.875 0.125 9.875 -3.1875 10.0625 C-6.0625 7.625 -6.0625 7.625 -8.1875 5.0625 C-2.84170561 0.08119159 -2.84170561 0.08119159 0 0 Z " fill="#EB7C2F" transform="translate(48.1875,168.9375)"/>
<path d="M0 0 C0.66 0.33 1.32 0.66 2 1 C1.01 2.32 0.02 3.64 -1 5 C4.94 5 10.88 5 17 5 C16.67 5.66 16.34 6.32 16 7 C13.4966352 7.26008985 11.07238169 7.42120408 8.5625 7.5 C3.2965085 7.38992942 3.2965085 7.38992942 -1 10 C-1.69748583 11.31747324 -2.36959957 12.64914193 -3 14 C-3.99 12.02 -4.98 10.04 -6 8 C-5.01 8 -4.02 8 -3 8 C-3 5.69 -3 3.38 -3 1 C-2.01 0.67 -1.02 0.34 0 0 Z " fill="#E28143" transform="translate(41,130)"/>
<path d="M0 0 C1.32 0 2.64 0 4 0 C4 2.97 4 5.94 4 9 C8.29 9 12.58 9 17 9 C17 9.66 17 10.32 17 11 C2.15 10.505 2.15 10.505 -13 10 C-13 9.67 -13 9.34 -13 9 C-8.71 9 -4.42 9 0 9 C0 6.03 0 3.06 0 0 Z " fill="#EA8121" transform="translate(85,124)"/>
<path d="M0 0 C1.08667969 0.02707031 2.17335937 0.05414063 3.29296875 0.08203125 C4.54013672 0.13423828 4.54013672 0.13423828 5.8125 0.1875 C5.6475 1.38375 5.4825 2.58 5.3125 3.8125 C4.87279433 7.29298715 4.72469287 10.67521488 4.8125 14.1875 C2.80956653 11.18309979 2.31978374 9.47756055 1.6875 6 C1.51992187 5.09894531 1.35234375 4.19789062 1.1796875 3.26953125 C1.05851563 2.58246094 0.93734375 1.89539062 0.8125 1.1875 C-0.30898437 1.81978516 -0.30898437 1.81978516 -1.453125 2.46484375 C-2.43796875 3.01269531 -3.4228125 3.56054688 -4.4375 4.125 C-5.89929688 4.94291016 -5.89929688 4.94291016 -7.390625 5.77734375 C-9.72360409 6.95360835 -11.64100762 7.70851691 -14.1875 8.1875 C-14.1875 6.52083333 -14.1875 4.85416667 -14.1875 3.1875 C-13.0428125 3.2803125 -13.0428125 3.2803125 -11.875 3.375 C-10.5446875 3.2821875 -10.5446875 3.2821875 -9.1875 3.1875 C-8.7646875 2.6925 -8.341875 2.1975 -7.90625 1.6875 C-5.35745379 -0.53690396 -3.31275756 -0.10686315 0 0 Z " fill="#D87D45" transform="translate(146.1875,52.8125)"/>
<path d="M0 0 C0.99 0.33 1.98 0.66 3 1 C0.9118378 4.01143868 -1.19805497 7.00697047 -3.3125 10 C-3.90740234 10.85851562 -4.50230469 11.71703125 -5.11523438 12.6015625 C-5.98051758 13.81972656 -5.98051758 13.81972656 -6.86328125 15.0625 C-7.39219971 15.81660156 -7.92111816 16.57070312 -8.46606445 17.34765625 C-8.97226318 17.89292969 -9.47846191 18.43820313 -10 19 C-10.99 19 -11.98 19 -13 19 C-13.33 18.34 -13.66 17.68 -14 17 C-12.68 17 -11.36 17 -10 17 C-10.33 15.02 -10.66 13.04 -11 11 C-10.071875 10.87625 -10.071875 10.87625 -9.125 10.75 C-6.81562433 10.18741541 -6.81562433 10.18741541 -5.75 7.9375 C-5.37875 6.9784375 -5.37875 6.9784375 -5 6 C-4.34 6 -3.68 6 -3 6 C-2.67 4.68 -2.34 3.36 -2 2 C-1.34 2 -0.68 2 0 2 C0 1.34 0 0.68 0 0 Z " fill="#393B57" transform="translate(133,80)"/>
<path d="M0 0 C6.6 0 13.2 0 20 0 C20 0.33 20 0.66 20 1 C17.36 1 14.72 1 12 1 C12 1.66 12 2.32 12 3 C10.02 3.33 8.04 3.66 6 4 C6 4.66 6 5.32 6 6 C4.02 6 2.04 6 0 6 C0 4.02 0 2.04 0 0 Z " fill="#EB8026" transform="translate(84,75)"/>
<path d="M0 0 C0.33 0 0.66 0 1 0 C1.62296173 10.84991681 1.62296173 10.84991681 -0.625 15 C-1.40875 15.66 -2.1925 16.32 -3 17 C-3.86625 17.7425 -4.7325 18.485 -5.625 19.25 C-10.05217524 21.54557235 -14.07370918 21.80528495 -19 22 C-19 21.34 -19 20.68 -19 20 C-16.36 20 -13.72 20 -11 20 C-11 19.01 -11 18.02 -11 17 C-9.88625 16.87625 -9.88625 16.87625 -8.75 16.75 C-5.21444308 15.7857572 -4.07997566 15.04567865 -2 12 C-1.53435837 9.40331382 -1.31255725 6.87610244 -1.17578125 4.2421875 C-1 2 -1 2 0 0 Z " fill="#FCA113" transform="translate(121,101)"/>
<path d="M0 0 C3.36720387 1.39332574 4.9859524 2.9789286 7 6 C8.98 5.67 10.96 5.34 13 5 C13.99 7.97 14.98 10.94 16 14 C11.75681831 14 10.51691202 12.0874875 7.4375 9.25 C6.46683594 8.36828125 5.49617188 7.4865625 4.49609375 6.578125 C2.36396224 4.37592344 1.10960438 2.81012232 0 0 Z " fill="#DD803A" transform="translate(48,155)"/>
<path d="M0 0 C1.36125 0.37125 1.36125 0.37125 2.75 0.75 C-1.1919417 5.63049925 -5.36950075 9.8080583 -10.25 13.75 C-9.92 12.1 -9.59 10.45 -9.25 8.75 C-8.26 8.42 -7.27 8.09 -6.25 7.75 C-6.4975 7.1725 -6.745 6.595 -7 6 C-7.25 3.75 -7.25 3.75 -5.6875 1.4375 C-3.25 -0.25 -3.25 -0.25 0 0 Z " fill="#DF7F3F" transform="translate(128.25,154.25)"/>
<path d="M0 0 C0.66 0.33 1.32 0.66 2 1 C0.43832037 3.8275625 -0.68144591 5.82948128 -3 8 C-6.14371394 8.86468579 -9.08165563 8.6695496 -12.3125 8.4375 C-13.14845703 8.40591797 -13.98441406 8.37433594 -14.84570312 8.34179688 C-16.89865506 8.2596788 -18.94978898 8.13412595 -21 8 C-20.34 6.68 -19.68 5.36 -19 4 C-18.67 4.66 -18.34 5.32 -18 6 C-13.38 5.67 -8.76 5.34 -4 5 C-3.67 4.01 -3.34 3.02 -3 2 C-2.01 2 -1.02 2 0 2 C0 1.34 0 0.68 0 0 Z " fill="#4C3A45" transform="translate(61,127)"/>
<path d="M0 0 C0.33 0 0.66 0 1 0 C1.125 3.375 1.125 3.375 1 7 C0.34 7.66 -0.32 8.32 -1 9 C-2.32 9 -3.64 9 -5 9 C-5.268125 9.928125 -5.53625 10.85625 -5.8125 11.8125 C-6.90977245 14.75781025 -7.53357169 16.15017877 -10 18 C-10.66 18 -11.32 18 -12 18 C-10.46776311 13.35075551 -7.92576405 9.97883359 -4.9375 6.1875 C-4.47794922 5.59001953 -4.01839844 4.99253906 -3.54492188 4.37695312 C-2.39179526 2.89532936 -1.19922322 1.44456694 0 0 Z " fill="#D57C44" transform="translate(139,76)"/>
<path d="M0 0 C0.66 0 1.32 0 2 0 C2.02712066 1.43739513 2.04645067 2.87493863 2.0625 4.3125 C2.07410156 5.11300781 2.08570313 5.91351563 2.09765625 6.73828125 C2 9 2 9 1 12 C1.66 12 2.32 12 3 12 C3.33 11.01 3.66 10.02 4 9 C4 10.32 4 11.64 4 13 C1.69 13 -0.62 13 -3 13 C-2.79375 12.05125 -2.5875 11.1025 -2.375 10.125 C-2.25125 9.09375 -2.1275 8.0625 -2 7 C-2.66 6.34 -3.32 5.68 -4 5 C-3.01 5 -2.02 5 -1 5 C-0.67 3.35 -0.34 1.7 0 0 Z " fill="#2B3E69" transform="translate(145,56)"/>
<path d="M0 0 C0.12375 0.639375 0.2475 1.27875 0.375 1.9375 C0.58125 2.618125 0.7875 3.29875 1 4 C1.66 4.33 2.32 4.66 3 5 C0.525 6.485 0.525 6.485 -2 8 C-1.01 8.33 -0.02 8.66 1 9 C0.67 10.32 0.34 11.64 0 13 C-2.64 11.68 -5.28 10.36 -8 9 C-8 8.34 -8 7.68 -8 7 C-6.00669158 5.65668346 -4.00615134 4.32405988 -2 3 C-1.34 2.01 -0.68 1.02 0 0 Z " fill="#4A4444" transform="translate(118,84)"/>
<path d="M0 0 C0 0.66 0 1.32 0 2 C-0.99 2.495 -0.99 2.495 -2 3 C-3.13350534 5.01669827 -3.13350534 5.01669827 -4 7 C-4.99 7 -5.98 7 -7 7 C-7.66 7.165 -8.32 7.33 -9 7.5 C-11 8 -11 8 -14 8 C-14.33 8.99 -14.66 9.98 -15 11 C-16.32 10.67 -17.64 10.34 -19 10 C-18.09636719 9.44570313 -17.19273437 8.89140625 -16.26171875 8.3203125 C-15.07029421 7.58857144 -13.87888897 6.85679896 -12.6875 6.125 C-12.09259766 5.76019531 -11.49769531 5.39539062 -10.88476562 5.01953125 C-2.71661932 0 -2.71661932 0 0 0 Z " fill="#473D4E" transform="translate(147,54)"/>
<path d="M0 0 C0.845625 0.5775 1.69125 1.155 2.5625 1.75 C10.40373604 6.25590455 20.12519161 7.86777573 29 9 C29 9.33 29 9.66 29 10 C21.75002578 10.28307925 15.09038772 9.50974035 8 8 C8 7.34 8 6.68 8 6 C5.36 5.67 2.72 5.34 0 5 C0 3.35 0 1.7 0 0 Z " fill="#D48044" transform="translate(0,5)"/>
<path d="M0 0 C1.74325447 2.6148817 2.41587957 4.0053433 3.125 6.9375 C3.29257813 7.60652344 3.46015625 8.27554688 3.6328125 8.96484375 C4 11 4 11 4 15 C2.72125 15.144375 1.4425 15.28875 0.125 15.4375 C-2.25692894 15.70642746 -3.84452691 15.92226346 -6 17 C-5.67 15.68 -5.34 14.36 -5 13 C-2.69 13 -0.38 13 2 13 C1.01 12.67 0.02 12.34 -1 12 C-0.67 8.04 -0.34 4.08 0 0 Z " fill="#54404B" transform="translate(147,56)"/>
<path d="M0 0 C0.99 0.33 1.98 0.66 3 1 C3 2.98 3 4.96 3 7 C4.32 7 5.64 7 7 7 C7 7.66 7 8.32 7 9 C7.99 9 8.98 9 10 9 C10.33 9.99 10.66 10.98 11 12 C7.04093183 10.56691865 3.71281819 8.66858051 0.1875 6.375 C-0.78832031 5.74335938 -1.76414063 5.11171875 -2.76953125 4.4609375 C-3.50558594 3.97882813 -4.24164063 3.49671875 -5 3 C-4.360625 2.690625 -3.72125 2.38125 -3.0625 2.0625 C-1.06389179 1.1654837 -1.06389179 1.1654837 0 0 Z " fill="#DE7F3A" transform="translate(61,186)"/>
<path d="M0 0 C0.33 0 0.66 0 1 0 C1.33 2.31 1.66 4.62 2 7 C2.5775 6.814375 3.155 6.62875 3.75 6.4375 C6.20692525 5.95976454 7.64397534 6.24270636 10 7 C10 4.69 10 2.38 10 0 C10.66 0 11.32 0 12 0 C12 2.97 12 5.94 12 9 C8.04 9 4.08 9 0 9 C0 6.03 0 3.06 0 0 Z " fill="#FDA016" transform="translate(90,124)"/>
<path d="M0 0 C-0.99 0.495 -0.99 0.495 -2 1 C-2.33 1.66 -2.66 2.32 -3 3 C-3 2.34 -3 1.68 -3 1 C-4.65 1.66 -6.3 2.32 -8 3 C-7.67 3.99 -7.34 4.98 -7 6 C-10.63 6.33 -14.26 6.66 -18 7 C-18 6.01 -18 5.02 -18 4 C-11.74827614 1.13035626 -6.90352555 -0.51137226 0 0 Z " fill="#E07935" transform="translate(92,24)"/>
<path d="M0 0 C0.33 0 0.66 0 1 0 C0.85769192 1.41702513 0.71099254 2.8336096 0.5625 4.25 C0.48128906 5.03890625 0.40007812 5.8278125 0.31640625 6.640625 C0.02365007 8.82364639 -0.42064419 10.8773182 -1 13 C-0.34 13.33 0.32 13.66 1 14 C0.67 14.66 0.34 15.32 0 16 C-0.99 16 -1.98 16 -3 16 C-3 17.98 -3 19.96 -3 22 C-3.99 22 -4.98 22 -6 22 C-4 14.66666667 -2 7.33333333 0 0 Z " fill="#D67E41" transform="translate(166,103)"/>
<path d="M0 0 C0.33 0.66 0.66 1.32 1 2 C-0.61987669 4.31624435 -2.24555743 6.62800082 -3.875 8.9375 C-4.33519531 9.59685547 -4.79539062 10.25621094 -5.26953125 10.93554688 C-8.7734375 15.88671875 -8.7734375 15.88671875 -11 17 C-11 15.68 -11 14.36 -11 13 C-10.34 13 -9.68 13 -9 13 C-9 12.34 -9 11.68 -9 11 C-8.34 11 -7.68 11 -7 11 C-6.814375 10.1028125 -6.814375 10.1028125 -6.625 9.1875 C-6 7 -6 7 -4 4 C-3.01 3.67 -2.02 3.34 -1 3 C-0.67 2.01 -0.34 1.02 0 0 Z " fill="#D27E4B" transform="translate(70,90)"/>
<path d="M0 0 C2.31 0.33 4.62 0.66 7 1 C5.92598892 3.91517292 5.22189824 5.77810176 3 8 C2.67 9.175625 2.34 10.35125 2 11.5625 C1.67 12.696875 1.34 13.83125 1 15 C0.01 15.495 0.01 15.495 -1 16 C-0.84402344 15.18015625 -0.68804687 14.3603125 -0.52734375 13.515625 C-0.23537109 11.89914063 -0.23537109 11.89914063 0.0625 10.25 C0.25972656 9.18265625 0.45695312 8.1153125 0.66015625 7.015625 C0.97156937 4.25228095 0.8991416 2.59053383 0 0 Z " fill="#C5813B" transform="translate(118,69)"/>
<path d="M0 0 C0.33 0.66 0.66 1.32 1 2 C0.01 3.485 0.01 3.485 -1 5 C-1.70812814 7.32108669 -2.38024152 9.65377147 -3 12 C-4.32 12 -5.64 12 -7 12 C-7.66 13.65 -8.32 15.3 -9 17 C-9.66 17 -10.32 17 -11 17 C-9.24933204 13.11390189 -6.81675994 9.72187742 -4.375 6.25 C-3.95476563 5.64800781 -3.53453125 5.04601562 -3.1015625 4.42578125 C-2.07006863 2.94886957 -1.03535421 1.47420806 0 0 Z " fill="#4A404C" transform="translate(54,114)"/>
<path d="M0 0 C1.216875 0.433125 2.43375 0.86625 3.6875 1.3125 C9.68448771 3.32426904 15.82563257 4.65442688 22 6 C22 6.33 22 6.66 22 7 C17.545 7.495 17.545 7.495 13 8 C12.67 7.01 12.34 6.02 12 5 C10.741875 4.855625 9.48375 4.71125 8.1875 4.5625 C5.57332877 4.26251314 3.52560108 3.84186703 1 3 C0.67 2.01 0.34 1.02 0 0 Z " fill="#D37F46" transform="translate(104,8)"/>
<path d="M0 0 C0.68707555 2.49064888 1 4.37886292 1 7 C0.43796875 6.76410156 -0.1240625 6.52820313 -0.703125 6.28515625 C-3.12695624 5.743 -3.12695624 5.743 -5.359375 7.43359375 C-6.54273437 8.42552734 -6.54273437 8.42552734 -7.75 9.4375 C-8.54921875 10.09621094 -9.3484375 10.75492188 -10.171875 11.43359375 C-11.07679687 12.20896484 -11.07679687 12.20896484 -12 13 C-12.66 12.67 -13.32 12.34 -14 12 C-12.86111328 11.07767578 -12.86111328 11.07767578 -11.69921875 10.13671875 C-10.70535156 9.32847656 -9.71148437 8.52023438 -8.6875 7.6875 C-7.70136719 6.88699219 -6.71523437 6.08648437 -5.69921875 5.26171875 C-3.68397834 3.57311644 -1.80511991 1.90369301 0 0 Z " fill="#D87F42" transform="translate(131,167)"/>
<path d="M0 0 C0.33 0 0.66 0 1 0 C1.10864945 2.06132142 1.18588321 4.12431321 1.25 6.1875 C1.29640625 7.33605469 1.3428125 8.48460938 1.390625 9.66796875 C0.92615622 13.62988749 -0.18448829 15.23141348 -3 18 C-3.66 18 -4.32 18 -5 18 C-5.33 18.99 -5.66 19.98 -6 21 C-7.32 20.67 -8.64 20.34 -10 20 C-9.27683594 19.51080078 -9.27683594 19.51080078 -8.5390625 19.01171875 C-7.59160156 18.35623047 -7.59160156 18.35623047 -6.625 17.6875 C-5.99851562 17.25824219 -5.37203125 16.82898438 -4.7265625 16.38671875 C-2.04427585 14.2323935 -1.06687714 12.47129457 -0.5859375 9.08203125 C-0.51632813 8.00308594 -0.44671875 6.92414063 -0.375 5.8125 C-0.30023438 4.72582031 -0.22546875 3.63914062 -0.1484375 2.51953125 C-0.09945312 1.68808594 -0.05046875 0.85664062 0 0 Z " fill="#EC8320" transform="translate(122,101)"/>
<path d="M0 0 C0.66 0.33 1.32 0.66 2 1 C1.67 2.65 1.34 4.3 1 6 C-2.3 6.33 -5.6 6.66 -9 7 C-6.16032769 4.16032769 -3.35997108 2.1653147 0 0 Z " fill="#DC8040" transform="translate(115,180)"/>
<path d="M0 0 C2.31 0.66 4.62 1.32 7 2 C7.0825 2.9075 7.165 3.815 7.25 4.75 C8.09248732 8.40077839 9.17881618 9.63384583 12 12 C9 12 9 12 6.73828125 9.8828125 C5.93777344 8.97273437 5.13726562 8.06265625 4.3125 7.125 C3.50425781 6.22007812 2.69601563 5.31515625 1.86328125 4.3828125 C0 2 0 2 0 0 Z " fill="#DA8044" transform="translate(29,162)"/>
<path d="M0 0 C0.375 2.25 0.375 2.25 0 5 C-3 7.3125 -3 7.3125 -6 9 C-6.66 8.67 -7.32 8.34 -8 8 C-7.3125 5.125 -7.3125 5.125 -6 2 C-2.27272727 0 -2.27272727 0 0 0 Z " fill="#E17C3C" transform="translate(114,167)"/>
<path d="M0 0 C0.66 0.33 1.32 0.66 2 1 C1.01 2.32 0.02 3.64 -1 5 C4.94 5 10.88 5 17 5 C17 5.33 17 5.66 17 6 C10.73 6 4.46 6 -2 6 C-2.33 4.35 -2.66 2.7 -3 1 C-2.01 0.67 -1.02 0.34 0 0 Z " fill="#C97F57" transform="translate(41,130)"/>
<path d="M0 0 C0.99 0 1.98 0 3 0 C3 0.66 3 1.32 3 2 C4.98 1.67 6.96 1.34 9 1 C7.7260411 3.03833424 6.38938077 5.03852126 5 7 C4.34 7 3.68 7 3 7 C0 2.61538462 0 2.61538462 0 0 Z " fill="#191E36" transform="translate(94,100)"/>
<path d="M0 0 C0.66 0 1.32 0 2 0 C1.3125 2.375 1.3125 2.375 0 5 C-2.625 6.3125 -2.625 6.3125 -5 7 C-5.66 5.35 -6.32 3.7 -7 2 C-4.69 2 -2.38 2 0 2 C0 1.34 0 0.68 0 0 Z " fill="#E37A3D" transform="translate(104,80)"/>
<path d="M0 0 C0.66 0.33 1.32 0.66 2 1 C0.56988027 1.86646667 -0.86940619 2.71781829 -2.3125 3.5625 C-3.51326172 4.27599609 -3.51326172 4.27599609 -4.73828125 5.00390625 C-7 6 -7 6 -10 5 C-9.67 4.34 -9.34 3.68 -9 3 C-9.66 2.34 -10.32 1.68 -11 1 C-10.06027344 1.01740234 -10.06027344 1.01740234 -9.1015625 1.03515625 C-7.87566406 1.04869141 -7.87566406 1.04869141 -6.625 1.0625 C-5.40683594 1.07990234 -5.40683594 1.07990234 -4.1640625 1.09765625 C-1.95062858 1.14466334 -1.95062858 1.14466334 0 0 Z " fill="#D88144" transform="translate(102,177)"/>
<path d="M0 0 C-2.91765 1.9451 -4.62537285 2.45276317 -8 3 C-8.33 4.98 -8.66 6.96 -9 9 C-9.33 9 -9.66 9 -10 9 C-10 6.03 -10 3.06 -10 0 C-6.33694766 -0.74926071 -3.57644848 -1.2380014 0 0 Z " fill="#EB841E" transform="translate(112,123)"/>
<path d="M0 0 C3.96 0 7.92 0 12 0 C12 0.33 12 0.66 12 1 C9.36 1.33 6.72 1.66 4 2 C4.7734375 3.175625 4.7734375 3.175625 5.5625 4.375 C6.036875 5.24125 6.51125 6.1075 7 7 C6.67 7.66 6.34 8.32 6 9 C4.99406757 7.8803014 3.9954151 6.7540588 3 5.625 C2.443125 4.99851562 1.88625 4.37203125 1.3125 3.7265625 C0 2 0 2 0 0 Z " fill="#422B17" transform="translate(90,98)"/>
<path d="M0 0 C0.86625 0.4640625 0.86625 0.4640625 1.75 0.9375 C4.51795905 2.24459178 6.93361147 3 10 3 C10.144375 3.78375 10.28875 4.5675 10.4375 5.375 C10.87798925 7.96421018 10.87798925 7.96421018 12 10 C8.78727751 8.56006357 6.3793336 6.76981628 3.75 4.4375 C3.04359375 3.81746094 2.3371875 3.19742188 1.609375 2.55859375 C1.07828125 2.04425781 0.5471875 1.52992188 0 1 C0 0.67 0 0.34 0 0 Z " fill="#D88440" transform="translate(40,175)"/>
<path d="M0 0 C1.32 0 2.64 0 4 0 C2.54955729 4.10958767 0.48889248 7.43258745 -2 11 C-2.33 9.68 -2.66 8.36 -3 7 C-2.01 6.67 -1.02 6.34 0 6 C0 4.02 0 2.04 0 0 Z " fill="#D77F43" transform="translate(156,147)"/>
<path d="M0 0 C1.66666667 1.66666667 3.33333333 3.33333333 5 5 C5.928125 5.886875 6.85625 6.77375 7.8125 7.6875 C10 10 10 10 10 12 C9.01 11.67 8.02 11.34 7 11 C6.67 10.34 6.34 9.68 6 9 C5.01 8.67 4.02 8.34 3 8 C1.76132839 5.38502661 0.91496017 2.74488051 0 0 Z " fill="#CD7843" transform="translate(34,153)"/>
<path d="M0 0 C0.33 0.66 0.66 1.32 1 2 C0.109375 3.91015625 0.109375 3.91015625 -1.25 6.0625 C-1.90742188 7.13177734 -1.90742188 7.13177734 -2.578125 8.22265625 C-4 10 -4 10 -7 11 C-5.5140084 6.40693504 -3.14985318 3.56430755 0 0 Z " fill="#C5794B" transform="translate(134,83)"/>
<path d="M0 0 C1 3 1 3 0.1875 4.875 C-0.204375 5.57625 -0.59625 6.2775 -1 7 C-1.67966676 8.66140763 -2.34938905 10.32700041 -3 12 C-3.66 12 -4.32 12 -5 12 C-4.58525633 6.71201818 -3.64775386 3.88309282 0 0 Z " fill="#403C4D" transform="translate(124,72)"/>
<path d="M0 0 C0.33 0.66 0.66 1.32 1 2 C2.65 1.67 4.3 1.34 6 1 C1.375 5.875 1.375 5.875 -2 7 C-2.33 6.01 -2.66 5.02 -3 4 C-1.5625 1.8125 -1.5625 1.8125 0 0 Z " fill="#D97D3F" transform="translate(126,180)"/>
<path d="M0 0 C2.875 0.625 2.875 0.625 6 2 C7.50420193 5.21352231 8 7.45930077 8 11 C6.66375099 9.35653302 5.33107149 7.71016314 4 6.0625 C3.2575 5.14597656 2.515 4.22945312 1.75 3.28515625 C0 1 0 1 0 0 Z " fill="#D47B3F" transform="translate(39,144)"/>
<path d="M0 0 C1.95803507 -0.05389087 3.91648909 -0.09274217 5.875 -0.125 C7.51082031 -0.15980469 7.51082031 -0.15980469 9.1796875 -0.1953125 C12 0 12 0 14 2 C12.41986783 2.25028811 10.83557694 2.47440946 9.25 2.6875 C7.92742187 2.87892578 7.92742187 2.87892578 6.578125 3.07421875 C3.44323483 2.98397191 2.28176413 2.07384637 0 0 Z " fill="#1F1E22" transform="translate(93,99)"/>
<path d="M0 0 C1.65 0 3.3 0 5 0 C1.72291137 3.67033927 -1.71522208 5.69281189 -6 8 C-5.00102287 5.00306862 -4.34869747 3.97290587 -2 2 C-1.34 2 -0.68 2 0 2 C0 1.34 0 0.68 0 0 Z " fill="#D58041" transform="translate(119,187)"/>
<path d="M0 0 C4.875 4.75 4.875 4.75 6 7 C3.8614515 9.1385485 2.86724686 9.42655063 0 10 C0 9.34 0 8.68 0 8 C0.66 8 1.32 8 2 8 C1.34 5.36 0.68 2.72 0 0 Z " fill="#D67E3B" transform="translate(90,100)"/>
<path d="M0 0 C1.32 1.32 2.64 2.64 4 4 C2.35 5.98 0.7 7.96 -1 10 C-1.99 9.01 -2.98 8.02 -4 7 C-2.68 7 -1.36 7 0 7 C-0.185625 6.030625 -0.37125 5.06125 -0.5625 4.0625 C-0.706875 3.051875 -0.85125 2.04125 -1 1 C-0.67 0.67 -0.34 0.34 0 0 Z " fill="#403E4C" transform="translate(123,90)"/>
<path d="M0 0 C1.9375 0.8125 1.9375 0.8125 4 2 C4.33 2.99 4.66 3.98 5 5 C2.69 5 0.38 5 -2 5 C-1.34 3.35 -0.68 1.7 0 0 Z " fill="#231D1D" transform="translate(95,83)"/>
<path d="M0 0 C3.40755272 1.92880342 6.74147635 3.8276509 10 6 C6.7 5.67 3.4 5.34 0 5 C0 3.35 0 1.7 0 0 Z " fill="#CB8755" transform="translate(0,5)"/>
<path d="M0 0 C-0.66 0.66 -1.32 1.32 -2 2 C-2.69748583 3.31747324 -3.36959957 4.64914193 -4 6 C-4.99 4.02 -5.98 2.04 -7 0 C-3.98968256 -0.93423645 -3.13349732 -1.04449911 0 0 Z " fill="#DD7D3B" transform="translate(42,138)"/>
<path d="M0 0 C2.97 0.33 5.94 0.66 9 1 C8.01 1.495 8.01 1.495 7 2 C7 2.66 7 3.32 7 4 C5.68 4 4.36 4 3 4 C3 3.34 3 2.68 3 2 C2.01 2 1.02 2 0 2 C0 1.34 0 0.68 0 0 Z " fill="#E07D3A" transform="translate(80,192)"/>
<path d="M0 0 C0.33 0.66 0.66 1.32 1 2 C0.22265625 3.7265625 0.22265625 3.7265625 -0.9375 5.625 C-1.618125 6.73875 -2.29875 7.8525 -3 9 C-3.93423645 5.98968256 -4.04449911 5.13349732 -3 2 C-2.01 1.34 -1.02 0.68 0 0 Z " fill="#D57B3E" transform="translate(164,138)"/>
<path d="M0 0 C2.64465038 3.1254959 3.84414715 6.08788267 5 10 C4.34 10 3.68 10 3 10 C0.96564469 6.27034861 0 4.33094958 0 0 Z " fill="#D07C46" transform="translate(20,129)"/>
<path d="M0 0 C2.97 0.495 2.97 0.495 6 1 C6 1.99 6 2.98 6 4 C4.02 4.99 2.04 5.98 0 7 C1 5 2 3 3 1 C2.01 0.67 1.02 0.34 0 0 Z " fill="#C5793E" transform="translate(62,123)"/>
<path d="M0 0 C1.32 0.33 2.64 0.66 4 1 C1.525 4.465 1.525 4.465 -1 8 C-1.33 6.68 -1.66 5.36 -2 4 C-1.34 3.67 -0.68 3.34 0 3 C0 2.01 0 1.02 0 0 Z " fill="#D58048" transform="translate(45,121)"/>
<path d="M0 0 C-1.65 1.65 -3.3 3.3 -5 5 C-5 4.34 -5 3.68 -5 3 C-5.66 3 -6.32 3 -7 3 C-6.67 2.01 -6.34 1.02 -6 0 C-3.42525708 -0.99667468 -2.51072708 -1.25536354 0 0 Z " fill="#3F3B52" transform="translate(141,75)"/>
<path d="M0 0 C0.66 0.33 1.32 0.66 2 1 C1.1875 2.9375 1.1875 2.9375 0 5 C-3 6 -3 6 -5.1875 5.0625 C-5.785625 4.711875 -6.38375 4.36125 -7 4 C-1.7265625 0.77734375 -1.7265625 0.77734375 0 0 Z " fill="#D47C3E" transform="translate(84,2)"/>
<path d="M0 0 C2.46800047 1.15173355 4.04783565 2.04783565 6 4 C5.67 4.66 5.34 5.32 5 6 C4.01 6 3.02 6 2 6 C2 5.34 2 4.68 2 4 C1.34 3.67 0.68 3.34 0 3 C0 2.01 0 1.02 0 0 Z " fill="#DC7238" transform="translate(56,176)"/>
<path d="M0 0 C2.52588702 2.36292656 3.88820837 3.66462511 5 7 C3.35 7 1.7 7 0 7 C0 4.69 0 2.38 0 0 Z " fill="#CC783E" transform="translate(28,144)"/>
<path d="M0 0 C1.5 1.125 1.5 1.125 3 3 C3.1875 6.1875 3.1875 6.1875 3 9 C2.01 9.33 1.02 9.66 0 10 C0.185625 9.46375 0.37125 8.9275 0.5625 8.375 C1.11419324 5.38009386 0.60597444 2.96254171 0 0 Z " fill="#DA7C37" transform="translate(25,139)"/>
<path d="M0 0 C0.33 1.32 0.66 2.64 1 4 C0.34 4 -0.32 4 -1 4 C-1 4.66 -1 5.32 -1 6 C-2.65 6.33 -4.3 6.66 -6 7 C-4.55802132 4.11604263 -2.29355765 2.23474848 0 0 Z " fill="#C77D43" transform="translate(126,94)"/>
<path d="M0 0 C0 0.66 0 1.32 0 2 C-2.40545638 3.20272819 -3.94996953 3.10071472 -6.625 3.0625 C-7.85089844 3.04896484 -7.85089844 3.04896484 -9.1015625 3.03515625 C-10.04128906 3.01775391 -10.04128906 3.01775391 -11 3 C-11 2.67 -11 2.34 -11 2 C-3.375 0 -3.375 0 0 0 Z " fill="#D07E41" transform="translate(71,30)"/>
<path d="M0 0 C1.65 0.33 3.3 0.66 5 1 C2.37801226 3.15377564 0.35595828 4.40072174 -3 5 C-3 4.34 -3 3.68 -3 3 C-2.01 3 -1.02 3 0 3 C0 2.01 0 1.02 0 0 Z " fill="#D97D43" transform="translate(107,194)"/>
<path d="M0 0 C1.2065625 0.0309375 1.2065625 0.0309375 2.4375 0.0625 C2.1075 1.0525 1.7775 2.0425 1.4375 3.0625 C-0.5425 3.0625 -2.5225 3.0625 -4.5625 3.0625 C-3.06867284 0.07484568 -3.06867284 0.07484568 0 0 Z " fill="#F17A28" transform="translate(168.5625,17.9375)"/>
<path d="M0 0 C-0.33 1.32 -0.66 2.64 -1 4 C-3.31 4 -5.62 4 -8 4 C-2 0 -2 0 0 0 Z " fill="#CF8143" transform="translate(179,6)"/>
</svg>
